<?xml version="1.0" standalone="no"?>
<!DOCTYPE svg PUBLIC "-//W3C//DTD SVG 20010904//EN"
 "http://www.w3.org/TR/2001/REC-SVG-20010904/DTD/svg10.dtd">
<svg version="1.0" xmlns="http://www.w3.org/2000/svg"
 width="1080.000000pt" height="629.000000pt" viewBox="0 0 1080.000000 629.000000"
 preserveAspectRatio="xMidYMid meet">
<metadata>
Created by potrace 1.16, written by Peter Selinger 2001-2019
</metadata>
<g transform="translate(0.000000,629.000000) scale(0.100000,-0.100000)"
fill="#000000" stroke="none">
<path d="M7671 6266 c19 -20 25 -22 37 -10 23 24 34 16 30 -21 -4 -31 -2 -35
20 -35 17 0 23 4 18 15 -7 19 24 36 52 28 12 -3 22 -12 22 -19 0 -8 4 -14 9
-14 5 0 16 -19 24 -42 l15 -43 1 36 c1 48 8 52 42 27 16 -12 42 -21 59 -21 20
0 32 -6 36 -19 6 -20 19 -24 29 -8 8 12 25 13 44 1 12 -8 12 -12 2 -25 -19
-22 6 -22 31 1 17 15 18 15 18 -6 0 -13 4 -20 11 -16 6 4 8 13 5 21 -3 8 -1
14 4 14 6 0 10 -7 10 -15 0 -8 5 -15 10 -15 6 0 13 7 16 15 12 31 26 15 20
-22 -4 -27 -3 -32 4 -18 8 19 9 18 9 -5 1 -17 4 -21 9 -12 6 9 17 4 42 -19 29
-28 32 -29 28 -11 -5 17 -2 22 13 22 10 0 19 -4 19 -10 0 -5 7 -10 15 -10 8 0
15 5 15 11 0 6 7 9 15 5 18 -7 20 15 3 33 -11 10 -7 11 17 5 38 -9 35 -5 39
-50 2 -21 9 -40 15 -42 8 -3 10 5 6 25 -5 23 -4 25 5 11 6 -10 18 -18 27 -18
10 0 14 -6 10 -20 -6 -23 3 -26 22 -7 11 10 13 9 8 -4 -6 -18 20 -35 66 -42
23 -4 27 -1 27 20 0 13 4 22 9 19 14 -9 19 -55 7 -59 -6 -2 0 -10 14 -17 17
-9 25 -10 28 -1 2 6 9 11 17 11 7 0 20 10 28 23 l16 22 0 -27 c1 -16 6 -28 12
-28 5 0 8 -4 4 -9 -3 -5 -1 -12 5 -16 5 -3 10 0 10 9 0 12 5 12 30 3 17 -6 30
-15 30 -19 0 -4 5 -8 10 -8 6 0 10 10 10 23 0 16 3 19 9 8 5 -8 15 -12 23 -9
25 10 51 -18 44 -46 -5 -19 -2 -26 9 -26 8 0 15 7 15 15 0 17 16 20 25 4 4 -6
14 -8 22 -5 9 4 22 1 30 -5 11 -10 15 -8 20 9 3 12 9 20 13 17 10 -6 1 -45
-11 -45 -5 0 -9 -5 -9 -10 0 -17 61 -7 71 12 14 26 29 22 29 -6 0 -26 21 -47
28 -28 2 7 12 12 23 12 21 0 24 11 8 27 -7 7 -3 9 16 5 17 -3 23 -8 16 -15 -5
-5 -7 -16 -4 -23 3 -9 -2 -14 -12 -14 -31 0 -9 -24 24 -26 33 -2 58 -14 28
-14 -9 0 -17 -5 -17 -11 0 -8 17 -10 52 -7 40 4 55 2 64 -10 9 -12 15 -12 33
-2 29 15 51 6 51 -21 0 -18 5 -20 38 -18 58 3 79 0 64 -9 -16 -11 -4 -45 14
-38 7 3 18 -1 24 -9 6 -8 18 -11 26 -8 8 3 14 1 14 -5 0 -5 7 -13 16 -16 8 -3
13 -2 10 3 -3 4 1 17 9 27 13 18 14 18 15 1 0 -10 6 -20 14 -23 8 -3 12 -12 9
-20 -3 -8 5 -18 21 -25 14 -7 26 -18 26 -25 0 -8 6 -11 15 -8 8 4 15 10 15 16
0 5 -4 6 -10 3 -5 -3 -10 0 -10 7 0 15 58 44 67 34 4 -3 1 -6 -5 -6 -7 0 -12
-4 -12 -9 0 -6 16 -4 38 3 20 7 37 18 37 25 0 6 4 11 9 11 5 0 11 -28 13 -63
l4 -64 -33 -15 c-18 -9 -51 -21 -73 -28 -33 -11 -36 -14 -20 -20 17 -6 13 -9
-20 -19 -22 -6 -49 -11 -60 -11 -69 -1 -307 -122 -291 -149 3 -4 -9 -21 -27
-37 l-32 -29 29 33 c59 64 7 30 -63 -43 l-73 -75 3 -92 c4 -86 3 -93 -16 -96
-11 -2 -33 -8 -48 -14 -27 -10 -32 -8 -98 58 -47 47 -72 65 -77 57 -7 -11
-258 -117 -387 -164 -27 -9 -140 -54 -250 -99 -204 -84 -349 -142 -785 -315
-135 -53 -249 -101 -254 -105 -4 -5 5 -16 20 -26 16 -10 57 -47 90 -82 36 -37
66 -62 73 -58 6 4 11 26 11 50 l0 43 93 45 c50 26 169 83 262 128 94 45 204
100 247 121 80 41 93 46 83 29 -3 -5 -2 -10 3 -10 6 0 9 -8 8 -17 -1 -14 5
-17 24 -15 l25 2 -25 -15 -25 -16 30 6 c17 4 44 13 60 20 41 18 177 67 195 70
8 1 26 7 40 12 88 36 364 133 368 129 5 -5 -58 -33 -96 -43 -18 -4 -21 -8 -10
-15 9 -7 7 -8 -7 -4 -11 3 -76 -15 -145 -40 -69 -25 -165 -59 -214 -76 -51
-18 -83 -34 -76 -38 7 -4 -22 -19 -70 -36 l-82 -29 4 -98 c3 -54 1 -92 -4 -85
-4 7 -8 50 -8 96 l0 82 -202 -101 -201 -101 6 -711 c4 -392 7 -842 7 -1001 0
-159 3 -287 6 -283 3 3 6 105 5 226 l-1 220 46 21 c26 11 51 20 55 20 5 0 28
8 52 19 38 17 160 65 230 91 16 5 26 14 22 19 -3 6 -21 2 -43 -9 -61 -30 -122
-53 -137 -53 -8 0 -15 -3 -15 -7 0 -4 -19 -13 -42 -20 -42 -12 -114 -41 -151
-61 -17 -9 -18 -4 -15 67 l3 77 57 21 c31 12 60 25 64 29 4 4 13 7 20 7 8 0
42 13 76 28 35 16 89 39 121 51 31 13 57 27 57 32 0 10 -19 5 -80 -23 -25 -11
-55 -24 -67 -29 -13 -5 -33 -13 -45 -18 -13 -5 -45 -19 -73 -31 -140 -63 -135
-64 -135 17 0 76 -8 66 95 109 22 9 63 26 90 38 28 13 87 37 132 55 45 18 84
39 87 46 3 10 -10 7 -47 -7 -29 -12 -56 -25 -62 -30 -5 -4 -17 -8 -27 -8 -10
0 -18 -4 -18 -10 0 -5 -7 -10 -15 -10 -8 0 -23 -4 -33 -9 -9 -5 -34 -16 -54
-25 -21 -9 -55 -23 -75 -32 -21 -9 -46 -20 -55 -25 -16 -8 -18 -3 -18 62 l0
70 60 26 c33 15 60 30 60 35 0 12 -6 10 -50 -12 -22 -11 -40 -18 -40 -14 0 4
-7 1 -15 -6 -13 -11 -15 -4 -15 57 l0 69 53 24 c28 13 72 32 97 43 25 11 82
37 128 58 45 22 87 39 92 39 10 0 30 32 30 49 0 6 -4 11 -9 11 -5 0 -8 -7 -7
-15 1 -11 -56 -41 -188 -101 -104 -46 -192 -82 -195 -78 -3 3 -6 31 -6 62 0
55 1 58 35 75 48 24 251 117 255 117 3 0 29 11 60 25 48 23 55 29 55 55 0 30
-19 53 -21 26 -3 -31 -4 -35 -14 -45 -5 -5 -53 -28 -105 -51 -109 -47 -170
-75 -221 -101 -20 -11 -39 -19 -41 -19 -3 0 -5 29 -4 65 l1 66 130 60 c72 33
160 74 197 90 37 17 69 36 71 43 3 6 1 29 -3 51 -7 37 -8 38 -10 10 -1 -16 -2
-35 -1 -40 0 -6 -45 -33 -102 -60 -56 -27 -141 -68 -190 -91 -48 -23 -89 -39
-91 -35 -2 3 -3 31 -4 62 l0 56 117 56 c64 32 119 57 123 57 4 0 8 -6 11 -12
2 -7 3 -6 2 3 -2 11 22 28 71 52 l74 37 -2 135 c-1 74 1 137 5 141 4 4 7 -69
8 -162 0 -93 2 -185 3 -204 2 -19 6 -188 10 -375 3 -187 9 -389 11 -450 3 -60
7 -258 10 -440 3 -181 8 -374 11 -428 l5 -98 -61 31 c-38 19 -60 37 -60 48 0
12 -2 14 -8 4 -9 -13 -42 -6 -42 9 0 5 -7 9 -15 9 -12 0 -15 -13 -15 -55 0
-30 -4 -55 -9 -55 -9 0 -87 32 -129 53 -18 9 -25 8 -32 -3 -5 -8 -130 -44
-297 -85 l-288 -71 48 -28 c26 -15 45 -32 41 -37 -3 -5 2 -6 11 -2 10 3 20 2
24 -3 3 -5 27 -20 54 -33 38 -19 53 -22 80 -15 26 8 32 15 31 36 -1 26 2 27
115 53 64 15 138 33 165 41 27 8 51 14 53 14 2 0 3 -11 3 -24 0 -14 5 -28 10
-31 6 -4 8 -10 5 -15 -3 -4 5 -6 17 -3 19 4 20 3 8 -7 -12 -9 -8 -11 22 -8 43
4 42 -7 -2 -15 -30 -6 -30 -7 -32 -79 l-2 -73 -6 75 c-4 41 -7 59 -8 40 -1
-20 -7 -41 -14 -48 -7 -7 -8 -12 -1 -12 6 0 8 -17 6 -42 -3 -24 -5 -56 -6 -73
-2 -27 -5 -30 -32 -29 -17 0 -29 6 -28 12 2 7 -9 12 -25 12 -21 0 -24 -2 -12
-10 11 -8 9 -9 -10 -5 -14 3 -54 -1 -90 -9 -133 -31 -137 -31 -144 4 -3 18 -1
41 5 52 8 15 8 22 -1 28 -26 16 0 36 66 52 105 26 195 46 237 54 23 4 37 12
37 21 0 9 -7 12 -17 9 -10 -3 -39 -8 -65 -12 -27 -3 -48 -9 -48 -13 0 -3 -16
-7 -36 -9 -20 -1 -41 -5 -47 -9 -7 -4 -28 -8 -47 -10 -20 -2 -49 -7 -65 -12
-30 -7 -30 -7 -36 -102 l-5 -94 -4 95 c-2 52 -5 77 -7 55 -3 -22 -10 -43 -16
-47 -7 -4 -7 -8 -2 -8 6 0 10 -22 10 -50 0 -42 -3 -50 -19 -50 -10 0 -36 -5
-57 -12 -30 -9 -39 -16 -39 -33 0 -16 -7 -24 -25 -27 -14 -3 -25 -1 -25 4 0 5
-4 6 -10 3 -23 -14 -8 -26 25 -19 34 6 35 5 35 -25 0 -21 -6 -34 -17 -38 -27
-10 -53 -46 -49 -64 3 -14 -8 -18 -56 -23 -33 -4 -66 -10 -74 -13 -10 -4 -14
3 -14 26 0 19 6 34 15 37 13 5 13 8 0 21 -19 19 -19 32 0 39 8 4 15 14 15 23
0 13 -2 13 -9 2 -11 -17 -18 -4 -19 37 0 21 5 35 14 39 12 5 13 8 3 14 -14 8
-22 86 -10 94 4 2 61 16 126 31 145 32 146 32 168 33 9 1 17 8 17 17 0 12 -6
15 -22 11 -13 -3 -40 -9 -60 -12 -21 -4 -38 -11 -38 -15 0 -5 -13 -8 -29 -8
-15 1 -34 -3 -41 -7 -7 -4 -23 -9 -34 -11 -12 -2 -36 -7 -53 -13 -27 -8 -33
-7 -33 5 0 8 6 14 13 14 6 0 4 5 -6 11 -14 8 -17 22 -15 67 1 31 4 61 6 66 3
5 4 118 4 252 -2 183 1 244 10 244 9 0 9 3 0 12 -15 15 -16 165 -1 170 7 2 7
12 0 31 -6 16 -11 61 -11 101 l0 72 -85 43 c-47 24 -85 47 -85 52 0 5 -9 9
-19 9 -11 0 -22 4 -26 10 -3 5 -33 21 -65 36 -33 15 -60 31 -60 35 0 5 -9 9
-19 9 -11 0 -33 11 -49 25 -17 14 -37 25 -45 25 -9 0 -19 5 -22 10 -13 20 -25
-2 -25 -45 l0 -44 -30 9 c-16 5 -30 6 -30 2 0 -4 -7 1 -15 12 -11 15 -19 16
-42 8 -22 -7 -37 -5 -75 14 -26 13 -49 28 -53 34 -4 6 -11 7 -17 4 -6 -4 -5
-9 3 -15 20 -12 2 -26 -54 -43 -45 -13 -47 -13 -42 3 12 40 -17 41 -129 5
-127 -40 -136 -41 -136 -14 0 13 -7 20 -19 20 -15 0 -21 -8 -23 -32 -2 -26 -8
-34 -26 -36 -23 -4 -23 -3 -17 80 5 74 23 480 23 518 0 14 4 83 18 301 l5 95
-107 63 -108 64 -55 -19 c-31 -10 -60 -20 -66 -22 -6 -1 -9 38 -7 109 3 79 1
109 -7 105 -7 -5 -11 3 -12 21 -1 17 -3 21 -6 11 -2 -10 -6 -18 -8 -18 -2 0
-35 18 -74 41 -52 30 -71 46 -72 62 0 12 -3 16 -6 10 -2 -7 -11 -13 -19 -13
-9 0 -14 -12 -15 -32 -1 -18 -2 -44 -4 -58 -1 -14 -6 -72 -9 -130 -7 -98 -22
-205 -25 -170 -1 20 -43 35 -106 39 -40 2 -76 16 -178 72 -71 38 -132 69 -136
69 -4 0 -6 -13 -3 -30 3 -23 0 -30 -12 -30 -18 0 -21 11 -8 25 5 6 6 21 2 35
-6 22 -8 19 -14 -22 -5 -29 -14 -48 -24 -52 -10 -3 -23 -9 -29 -12 -7 -3 -13
-1 -13 5 0 7 12 16 26 22 33 12 28 19 -8 12 -23 -4 -28 -11 -28 -34 0 -21 -5
-29 -17 -29 -10 -1 -36 -9 -58 -20 -22 -11 -44 -19 -48 -20 -4 0 -28 -9 -51
-20 -40 -18 -44 -23 -48 -60 -2 -22 -3 -40 -1 -40 22 0 53 24 53 40 0 12 -4
19 -9 15 -5 -3 -12 -1 -16 5 -9 14 19 12 33 -2 10 -10 15 -10 22 2 9 13 11 13
20 0 7 -11 10 -8 10 17 0 17 5 35 10 38 6 3 10 -3 10 -15 0 -17 4 -19 25 -14
17 4 25 2 26 -7 0 -8 5 -3 11 11 9 21 11 23 17 8 5 -15 9 -12 20 15 22 47 38
61 44 37 7 -27 25 -25 37 3 8 18 9 15 7 -18 -1 -23 -6 -38 -12 -35 -5 3 -9 8
-8 13 2 4 -2 7 -7 7 -6 0 -10 -7 -8 -16 2 -12 -24 -28 -107 -61 -60 -24 -112
-48 -116 -54 -3 -6 -12 -9 -20 -7 -8 2 -13 -3 -12 -9 4 -17 -14 -17 -20 0 -3
6 -4 2 -4 -10 1 -13 3 -23 6 -23 15 0 71 25 71 33 0 4 4 6 9 3 4 -3 66 17 137
45 124 48 260 101 296 114 14 6 16 2 14 -22 -2 -15 -4 -45 -5 -66 -1 -34 -5
-40 -37 -53 -40 -17 -41 -30 -1 -15 14 5 27 8 29 6 2 -2 -2 -70 -9 -152 -7
-81 -15 -188 -18 -238 -2 -49 -12 -178 -20 -285 -8 -107 -15 -199 -15 -203 0
-5 5 -5 10 -2 6 3 10 2 10 -4 0 -5 -4 -11 -10 -13 -5 -1 -12 -37 -16 -78 -3
-41 -8 -82 -11 -90 -3 -8 -5 -39 -3 -67 1 -47 -1 -54 -22 -63 -22 -10 -508
-162 -578 -182 -72 -19 -89 -29 -95 -58 -5 -21 -14 -30 -36 -35 -16 -4 -32
-11 -35 -17 -5 -7 2 -9 20 -4 27 7 27 6 21 -24 -4 -19 -3 -30 4 -30 15 0 14
-75 -2 -88 -6 -6 -24 -13 -40 -17 -16 -4 -27 -14 -27 -24 0 -10 3 -12 8 -5 4
6 15 13 25 17 14 5 17 0 18 -31 l2 -37 7 40 c7 37 7 38 9 9 0 -17 -2 -46 -6
-65 -5 -28 -7 -30 -14 -14 -6 15 -8 12 -8 -15 -1 -26 2 -31 9 -20 8 13 10 13
10 -2 0 -12 -11 -19 -35 -24 -49 -9 -56 -26 -7 -18 l39 6 -4 -53 c-6 -74 -5
-71 -49 -86 -27 -9 -31 -12 -11 -9 22 3 27 -1 28 -18 1 -19 2 -18 9 4 8 25 8
24 9 -5 0 -16 -2 -47 -5 -67 -6 -33 -11 -38 -40 -44 -19 -3 -34 -10 -34 -14 0
-4 16 -4 35 0 l36 8 -7 -61 c-4 -34 -9 -64 -11 -67 -3 -3 -21 -10 -41 -17
l-37 -12 38 3 c36 4 37 3 37 -29 0 -75 -10 -94 -54 -106 -34 -9 -51 -8 -101 8
l-60 19 2 65 c1 61 0 58 -13 -19 -5 -31 -7 -33 -35 -27 -22 5 -29 3 -29 -9 0
-18 -8 -20 -28 -7 -11 6 -9 9 6 13 16 5 20 20 30 113 6 59 14 111 19 116 4 4
20 11 34 14 l27 7 -4 -69 -3 -68 10 75 c6 41 16 78 22 83 8 5 5 7 -8 4 -132
-32 -123 -28 -129 -66 -3 -20 -8 -61 -11 -91 -3 -30 -8 -71 -11 -91 l-5 -37
-47 14 c-31 10 -48 11 -50 4 -2 -5 -11 -10 -20 -10 -15 0 -15 2 -2 10 13 9 13
11 0 20 -16 9 -14 50 14 261 4 36 3 37 -40 49 -38 11 -44 16 -44 40 0 31 19
23 -605 240 -192 67 -354 127 -360 133 -5 7 -21 13 -35 14 -14 1 -37 5 -52 8
-24 6 -28 4 -28 -14 0 -25 -13 -26 -70 -6 -52 18 -60 19 -60 2 0 -7 -14 -18
-31 -24 -26 -10 -30 -10 -27 5 2 9 13 22 26 28 l23 11 -29 12 c-28 12 -67 8
-107 -10 -27 -12 -252 -91 -400 -141 -66 -22 -125 -46 -130 -53 -6 -7 -17 -54
-24 -105 -11 -79 -16 -93 -36 -102 -15 -7 -21 -16 -17 -26 4 -11 1 -14 -10
-10 -83 32 -224 65 -280 66 l-67 1 -10 -52 c-6 -28 -13 -69 -17 -90 -6 -36 -8
-39 -35 -33 -18 3 -31 1 -36 -8 -4 -8 -54 -28 -110 -46 -57 -18 -103 -36 -103
-40 0 -4 9 -10 21 -13 16 -4 19 -11 14 -26 -8 -27 5 -27 80 -1 70 24 75 24 75
4 0 -12 7 -14 31 -9 26 6 30 4 27 -12 -2 -13 -11 -17 -30 -15 -14 2 -29 -1
-32 -6 -3 -5 -53 -24 -111 -42 -58 -19 -105 -37 -105 -41 0 -3 10 -9 21 -12
15 -4 20 -11 16 -21 -8 -21 8 -20 85 4 34 11 65 20 68 20 4 0 4 -15 2 -34 -4
-38 5 -33 -180 -87 -43 -13 -43 -13 -22 -29 12 -9 20 -25 18 -36 -3 -21 -6
-21 89 6 57 17 61 17 66 1 11 -43 -8 -57 -117 -86 -106 -27 -124 -38 -86 -48
11 -3 20 -13 20 -22 0 -12 6 -16 17 -12 93 28 134 39 137 36 2 -2 1 -18 -1
-35 -5 -31 -8 -32 -106 -59 -119 -32 -128 -36 -99 -46 12 -5 22 -15 22 -24 0
-19 16 -19 66 -2 86 30 94 30 94 0 0 -16 -4 -33 -8 -39 -4 -5 -50 -20 -102
-33 -130 -30 -129 -30 -100 -44 14 -7 26 -18 26 -25 1 -7 2 -14 3 -16 0 -2 31
5 68 15 89 25 90 25 85 -15 l-4 -34 -109 -27 c-108 -27 -128 -38 -89 -48 11
-3 20 -12 20 -21 0 -20 -4 -20 80 3 72 20 81 18 75 -15 -2 -10 -4 -24 -4 -30
-1 -6 -27 -16 -59 -23 -45 -8 -70 -8 -115 3 -32 7 -60 16 -63 19 -3 2 4 51 15
108 11 57 34 178 52 269 17 91 42 220 55 288 13 68 24 130 24 137 0 7 -14 16
-30 20 -37 8 -38 23 -9 164 11 56 19 107 16 114 -2 6 -9 -16 -16 -50 -11 -60
-12 -61 -44 -57 -17 1 -35 3 -39 3 -5 1 -8 12 -8 26 0 22 -8 26 -72 45 -40 11
-82 25 -93 30 -18 8 -17 9 7 9 35 1 45 18 16 27 -16 5 -26 1 -39 -15 -23 -28
-61 -42 -82 -30 -11 6 -17 6 -17 0 0 -5 -17 -13 -37 -19 l-38 -10 31 -1 c23
-1 33 -7 37 -21 3 -11 1 -20 -3 -20 -5 0 -21 -11 -35 -24 -18 -17 -22 -26 -13
-29 7 -3 1 -6 -14 -6 -19 -1 -28 -6 -28 -17 0 -12 -6 -15 -22 -10 -37 11 -47
12 -47 1 0 -5 7 -10 17 -10 9 0 23 -4 30 -8 14 -10 17 -31 2 -22 -5 3 -10 2
-10 -4 0 -5 -3 -17 -6 -25 -5 -12 -2 -15 11 -10 14 6 16 3 12 -12 -3 -10 -11
-42 -18 -71 -7 -29 -17 -50 -21 -47 -5 4 -6 -10 -3 -30 7 -34 6 -35 -21 -30
-18 3 -24 1 -16 -4 15 -10 5 -42 -13 -42 -13 0 -33 -85 -23 -95 2 -3 19 0 37
5 28 8 32 7 29 -8 -2 -10 -14 -18 -28 -20 -14 -1 -42 -8 -63 -14 -29 -9 -37
-16 -34 -29 7 -25 -88 -54 -169 -52 -61 2 -205 -35 -211 -54 -2 -5 8 -15 21
-21 23 -10 24 -14 14 -49 -5 -21 -13 -41 -16 -45 -4 -4 -34 0 -67 7 -33 8 -63
15 -67 15 -5 0 -8 -189 -8 -420 l0 -420 1485 0 c1165 0 1490 3 1507 13 16 9
22 9 25 0 3 -9 26 -13 64 -13 54 0 59 2 60 23 1 12 2 27 3 32 1 6 5 38 10 73
7 53 11 62 28 62 20 0 20 -4 13 -81 -3 -45 -9 -88 -12 -95 -3 -8 0 -14 5 -14
6 0 12 19 14 42 2 24 9 43 17 46 11 4 13 -4 8 -42 l-7 -47 96 3 c53 1 98 6
100 10 8 13 44 9 44 -4 0 -9 4 -8 10 2 6 10 10 11 10 3 0 -10 147 -13 700 -13
l700 0 0 39 c0 22 4 42 8 45 5 3 37 8 72 12 63 7 63 6 57 -17 -4 -13 -7 -32
-7 -42 0 -10 -4 -15 -10 -12 -5 3 -10 -1 -10 -9 0 -12 11 -16 50 -16 l50 0 0
54 c0 30 5 58 11 62 8 4 10 -12 7 -55 -1 -33 0 -61 5 -61 4 0 7 27 7 59 0 56
9 79 28 67 5 -3 5 -30 2 -61 -3 -31 -3 -58 2 -61 4 -3 8 14 8 38 0 67 8 82 45
94 l34 11 -6 -74 -6 -73 120 0 c66 0 135 5 153 12 26 8 35 8 38 0 2 -8 8 -7
19 3 19 20 73 20 73 0 0 -13 285 -15 2505 -15 2441 0 2505 0 2505 19 0 16 11
19 80 25 l80 7 0 35 c0 30 -3 34 -22 30 -13 -3 -50 -7 -84 -11 l-61 -6 -7 62
c-10 104 -15 97 67 106 39 4 77 8 82 8 6 0 13 -20 16 -45 3 -25 7 404 7 954 2
947 1 998 -15 992 -17 -6 -17 -5 0 8 17 13 17 75 14 1287 -1 701 -6 1285 -9
1299 -3 14 -9 53 -13 88 -3 35 -15 83 -25 107 -11 26 -15 47 -10 50 15 9 30
-4 24 -20 -3 -8 0 -31 6 -51 9 -27 15 -33 21 -23 5 8 9 19 9 24 0 6 -5 3 -10
-5 -8 -13 -10 -12 -10 3 0 9 5 17 10 17 7 0 10 228 10 665 l0 665 -1576 0
-1576 0 23 -24z m923 -2211 c8 -199 23 -624 36 -1025 17 -535 21 -633 25 -745
10 -261 15 -479 9 -467 -3 6 -10 9 -16 6 -5 -3 -12 3 -15 15 -3 12 -12 22 -19
22 -27 3 -32 4 -39 10 -3 4 10 10 30 13 24 5 35 12 35 24 0 14 -2 14 -9 3 -5
-8 -16 -11 -25 -8 -9 4 -16 3 -16 -2 0 -12 -39 -21 -45 -10 -3 4 -12 6 -20 2
-9 -3 -22 1 -31 8 -9 7 -24 13 -35 14 -25 2 -26 3 -31 57 -6 48 -5 48 31 58
20 5 42 10 49 10 25 0 122 31 122 39 0 12 -49 4 -67 -11 -13 -11 -17 -11 -21
0 -3 10 -8 9 -23 -4 -10 -9 -25 -14 -34 -11 -8 4 -15 3 -15 -2 0 -5 -11 -11
-25 -13 -14 -3 -25 -1 -25 6 0 6 -4 4 -9 -4 -6 -8 -7 -18 -5 -22 3 -5 -15 2
-40 14 l-46 22 0 56 0 56 58 16 c31 9 71 19 87 22 17 4 41 9 55 12 14 4 34 8
45 9 43 7 63 18 68 37 5 19 5 19 -13 3 -10 -9 -23 -14 -29 -11 -5 4 -12 2 -15
-2 -3 -5 -16 -9 -28 -8 -13 1 -26 -2 -29 -7 -4 -5 -18 -10 -33 -9 -14 0 -26
-5 -26 -10 0 -6 -13 -8 -30 -4 -16 3 -30 2 -30 -3 0 -5 -9 -11 -20 -14 -11 -3
-20 -1 -20 5 0 5 -8 2 -17 -8 -17 -16 -18 -15 -25 17 -8 40 -8 129 1 130 8 1
32 7 59 15 18 5 22 2 23 -17 l1 -24 7 25 c8 31 47 40 54 13 4 -15 5 -14 6 4 1
19 11 24 76 38 53 12 75 21 75 32 0 12 -3 13 -13 4 -8 -6 -17 -8 -20 -4 -4 3
-13 0 -22 -7 -8 -7 -21 -10 -30 -7 -8 4 -17 1 -21 -4 -3 -6 -17 -9 -30 -6 -14
2 -25 -1 -28 -9 -3 -8 -15 -14 -27 -14 -17 0 -20 5 -16 21 3 13 1 19 -6 16 -7
-2 -12 -12 -12 -23 0 -13 -8 -20 -25 -22 -14 -2 -30 -8 -36 -13 -19 -15 -24 2
-24 76 l0 71 88 23 c48 12 95 23 104 25 10 1 21 5 24 9 4 4 17 7 30 7 33 0 54
10 54 26 0 8 -6 11 -15 8 -11 -4 -15 1 -16 17 l-1 24 -7 -25 c-4 -14 -16 -26
-26 -28 -11 -2 -29 -7 -40 -12 -19 -8 -69 -22 -90 -25 -5 -1 -21 -7 -35 -12
-22 -9 -25 -8 -28 13 -2 14 -7 22 -12 19 -4 -3 -6 -13 -3 -24 3 -11 -2 -21
-12 -24 -14 -6 -15 3 -13 70 l3 77 85 23 c101 27 114 28 106 8 -3 -8 -1 -15 4
-15 6 0 10 9 10 20 0 15 11 22 45 31 26 7 45 17 45 25 0 17 2 17 -49 -1 -22
-8 -41 -12 -41 -8 0 3 -6 1 -12 -4 -7 -6 -21 -13 -32 -17 -15 -5 -17 -2 -13
14 3 11 1 20 -3 20 -5 0 -10 -10 -12 -22 -2 -14 -11 -22 -25 -23 -13 -1 -23 2
-23 7 0 5 10 13 23 19 l22 10 -22 -5 c-20 -4 -23 0 -23 27 0 49 -11 25 -12
-27 0 -43 -2 -46 -28 -46 -16 0 -30 -6 -33 -12 -9 -27 -20 4 -24 69 l-5 68 48
14 c27 7 65 17 84 21 19 4 43 11 53 15 10 4 17 3 17 -4 0 -5 -19 -15 -42 -22
-36 -10 -40 -13 -23 -19 11 -4 23 -3 27 3 3 6 14 11 25 13 10 1 29 6 43 10
l25 8 -25 7 -25 6 25 10 c24 10 25 9 31 -36 5 -43 6 -44 9 -11 1 19 2 40 1 46
-1 7 8 14 19 17 13 3 18 11 14 20 -3 9 -12 13 -20 10 -8 -3 -14 0 -14 6 0 6 7
11 15 11 8 0 15 4 15 10 0 5 -19 3 -41 -5 -23 -8 -43 -15 -45 -15 -2 0 -4 18
-4 39 0 26 5 41 16 45 27 11 33 7 37 -26 3 -29 4 -28 5 9 2 42 1 42 -24 33
-32 -12 -34 -12 -34 0 0 5 20 15 45 21 26 7 45 17 45 25 0 16 -36 19 -45 4 -3
-5 -16 -10 -29 -10 -12 0 -26 -3 -30 -7 -10 -10 -46 -14 -46 -5 0 8 57 29 101
37 10 2 27 9 36 15 16 10 15 10 -4 5 -21 -6 -23 -3 -23 34 0 30 4 41 15 41 8
0 15 4 15 10 0 5 -7 7 -15 4 -8 -4 -15 -1 -15 4 0 6 9 13 19 17 12 4 18 12 14
21 -4 11 -9 12 -19 3 -11 -9 -14 -9 -14 0 0 6 7 14 15 17 8 4 15 10 15 15 0 4
-7 6 -15 3 -12 -5 -15 2 -15 29 0 25 5 36 18 39 12 4 17 14 16 34 -1 24 -5 29
-23 27 -13 -2 -20 1 -16 7 3 6 12 10 20 10 8 0 17 5 20 10 4 7 -2 9 -19 4 -23
-6 -26 -3 -26 22 0 16 5 36 10 44 8 12 10 12 10 1 0 -11 3 -11 15 -1 23 19 18
28 -12 24 -16 -2 -20 -1 -10 2 9 3 17 10 17 15 0 6 5 7 10 4 6 -3 10 4 10 17
0 18 -2 20 -10 8 -8 -13 -10 -12 -10 3 0 9 6 17 13 17 9 0 9 2 -1 9 -11 6 -12
34 -7 126 4 91 3 120 -7 127 -10 6 -10 8 0 8 7 0 12 13 12 31 0 16 -4 28 -9
25 -5 -3 -7 34 -5 84 2 68 0 89 -9 84 -8 -5 -8 -3 1 7 15 16 16 125 2 134 -6
4 -8 19 -6 33 2 15 5 72 7 127 2 97 2 96 10 -50 4 -82 10 -222 13 -310z m-464
285 c-8 -5 -10 -10 -4 -10 5 0 11 -20 13 -45 1 -34 -2 -47 -15 -52 -9 -3 -20
0 -25 8 -6 11 -9 8 -9 -8 0 -13 -6 -23 -12 -23 -10 0 -9 -3 1 -9 16 -10 18 -9
-104 -70 -119 -59 -125 -62 -125 -51 0 6 6 10 14 10 8 0 18 5 22 11 4 8 0 9
-15 4 -20 -6 -21 -3 -21 47 0 48 3 54 30 70 17 9 30 14 30 9 0 -4 -10 -13 -23
-18 -23 -11 -35 -47 -13 -40 6 2 11 10 11 17 0 7 6 15 13 18 6 2 12 -2 12 -9
0 -7 3 -9 8 -5 4 4 7 13 7 18 0 6 6 13 14 16 8 3 11 0 7 -7 -4 -6 -1 -11 8
-11 9 0 16 9 16 20 0 11 6 20 13 20 9 0 9 2 -1 9 -11 7 -11 9 2 14 9 4 15 3
15 -1 -4 -23 2 -46 9 -35 4 6 19 16 34 22 21 8 26 15 22 34 -2 15 1 27 9 30
14 5 20 -24 7 -33 -4 -3 -2 -11 6 -18 12 -10 14 -10 14 2 0 8 8 20 18 26 16
11 16 11 -2 6 -16 -6 -17 -4 -6 9 10 12 10 15 -1 15 -11 0 -11 2 1 10 8 5 20
10 25 10 6 0 3 -5 -5 -10z m-81 -265 c-1 -47 -6 -65 -15 -65 -8 0 -14 7 -14
16 0 8 -5 12 -11 9 -6 -4 -8 -13 -5 -21 4 -10 -19 -26 -73 -53 l-78 -40 -2 65
c-1 38 2 64 9 64 5 0 10 -7 10 -15 0 -13 2 -13 14 -3 9 9 10 15 3 20 -9 5 134
86 156 88 4 0 7 -29 6 -65z m191 0 c0 -2 -13 -11 -28 -19 -25 -13 -28 -19 -23
-48 l5 -33 6 35 c3 20 11 36 20 38 12 2 15 -8 15 -44 l0 -47 -182 -89 c-101
-48 -187 -88 -191 -88 -5 0 -10 27 -11 60 -2 49 1 60 14 60 9 0 13 -4 10 -10
-3 -6 1 -7 10 -3 13 4 14 8 4 13 -8 5 36 32 119 73 89 44 132 60 132 51 0 -8
5 -14 11 -14 6 0 8 8 5 18 -4 12 4 22 27 33 33 17 57 23 57 14z m260 -1030 c0
-8 -8 -16 -17 -16 -17 -1 -17 -2 0 -6 13 -4 17 -15 17 -59 0 -54 -6 -62 -44
-55 -5 1 -12 -3 -16 -8 -3 -6 -21 -13 -40 -16 -58 -8 -69 -11 -76 -18 -11 -10
-24 -9 -24 3 0 5 11 12 24 16 18 4 22 10 18 27 l-5 21 -8 -22 c-13 -35 -29
-25 -29 18 0 22 5 40 10 40 6 0 13 0 18 -1 4 0 9 10 12 22 4 16 18 26 50 35
55 17 51 17 48 0 -2 -8 1 -14 7 -13 5 1 8 10 7 19 -3 14 9 22 41 27 4 0 7 -6
7 -14z m480 -205 c0 -6 -13 -13 -30 -16 -16 -4 -30 -11 -30 -16 0 -6 7 -7 15
-4 8 3 22 9 30 12 15 6 16 0 18 -85 1 -16 -6 -27 -21 -32 -16 -6 -22 -5 -22 6
0 8 8 15 18 16 9 0 12 3 5 5 -6 3 -28 1 -47 -5 -31 -8 -36 -7 -37 7 0 12 -3
10 -9 -5 -6 -15 -18 -23 -32 -23 -13 0 -30 -5 -38 -10 -11 -7 -2 -9 30 -4 42
5 44 4 25 -11 -11 -8 -25 -13 -32 -11 -7 3 -13 1 -13 -5 0 -6 -7 -9 -15 -6 -8
4 -17 2 -20 -3 -3 -5 -12 -7 -20 -3 -8 3 -15 0 -15 -6 0 -6 -7 -8 -17 -4 -12
5 -14 3 -8 -8 6 -11 5 -12 -5 -2 -10 9 -17 10 -27 1 -20 -17 -24 -6 -26 68 -2
73 -1 74 78 89 11 2 30 7 43 11 14 4 22 2 22 -5 0 -6 -13 -14 -30 -17 -16 -4
-30 -10 -30 -14 0 -5 27 0 60 10 60 18 60 18 60 -3 0 -32 10 -14 13 23 2 30 6
34 47 45 60 16 60 16 60 5z m-2805 -182 c-4 -101 -9 -194 -10 -208 -2 -14 -4
-44 -4 -67 -1 -40 -2 -42 -38 -50 -47 -9 -44 -8 -66 -18 -26 -11 -31 0 -21 46
11 53 33 64 36 17 l1 -33 4 33 c3 24 11 36 30 43 20 7 28 6 35 -3 5 -9 8 -6 8
9 0 22 -1 22 -41 8 -52 -19 -66 -19 -66 0 0 10 7 13 24 9 21 -6 23 -3 22 32
-1 22 -1 60 1 86 2 45 4 48 36 54 19 3 34 11 34 16 0 6 -6 8 -14 5 -8 -3 -34
-11 -58 -17 -24 -6 -51 -13 -60 -16 -13 -4 -16 -1 -12 9 3 9 13 13 26 9 15 -3
19 -2 14 7 -6 8 -1 10 17 6 16 -4 30 -1 38 8 7 8 21 12 31 9 12 -3 18 1 18 12
0 14 -6 16 -35 10 -33 -6 -35 -5 -31 17 3 13 5 34 5 46 1 15 9 23 31 28 17 4
30 11 30 16 0 5 -11 4 -26 -1 -31 -12 -34 -12 -34 -1 0 5 14 12 31 16 19 4 33
15 36 26 13 47 15 6 8 -163z m2995 57 c0 -10 -10 -15 -29 -15 -33 0 -48 -14
-29 -26 6 -4 14 -2 16 4 4 14 42 16 42 3 0 -5 3 -22 6 -38 5 -27 3 -31 -20
-35 -19 -4 -26 -1 -27 11 -1 13 -2 13 -6 -1 -2 -10 -21 -22 -45 -28 -22 -6
-38 -14 -35 -17 4 -3 20 0 38 6 18 6 34 9 37 7 9 -9 -9 -24 -35 -29 -16 -3
-46 -11 -68 -17 -22 -6 -49 -12 -60 -13 -11 -1 -24 -5 -30 -8 -5 -4 -27 -9
-47 -13 -21 -4 -41 -8 -45 -9 -4 -1 -9 23 -11 55 -3 48 -1 57 15 61 12 4 10 5
-6 4 -23 -2 -24 -5 -23 -69 1 -70 -2 -74 -45 -69 -7 1 -13 -3 -13 -10 0 -6 -7
-9 -15 -5 -8 3 -15 2 -15 -2 0 -4 -13 -8 -28 -9 l-28 -2 -2 73 c-3 73 -3 73
25 79 15 3 36 9 46 12 14 6 17 1 17 -36 0 -51 8 -48 12 5 3 37 5 39 53 53 85
23 115 27 115 14 0 -10 -7 -12 -50 -15 -11 -1 -13 -13 -11 -53 2 -43 -1 -52
-16 -56 -16 -4 -16 -5 2 -6 11 0 27 4 35 9 10 6 11 10 3 10 -8 0 -13 15 -13
39 0 32 4 41 21 46 14 5 25 2 30 -6 7 -11 9 -11 9 2 0 10 11 19 25 21 20 4 25
1 26 -16 l2 -21 4 21 c2 12 14 27 26 33 l22 11 -22 -6 c-13 -3 -23 -1 -23 5 0
12 10 19 41 25 21 4 120 32 127 35 1 0 2 -6 2 -14z m-3383 -27 c-3 -13 -9 -97
-13 -188 -4 -91 -9 -168 -10 -172 -1 -5 -2 -28 -3 -52 -1 -37 -4 -45 -25 -50
-13 -3 -31 -9 -40 -12 -13 -5 -16 2 -16 40 0 44 2 47 30 53 17 3 33 10 36 14
7 12 0 11 -63 -7 -30 -9 -56 -14 -59 -11 -2 2 24 12 60 21 61 17 64 19 70 54
6 36 8 142 4 142 -2 0 -32 -9 -68 -20 -74 -22 -78 -23 -64 -12 5 5 37 17 70
27 l62 17 6 46 c3 24 6 64 6 88 0 26 5 44 11 44 6 0 9 -10 6 -22z m-387 -239
c-6 -79 -12 -166 -15 -194 -2 -27 -5 -67 -5 -87 0 -21 -4 -38 -9 -38 -5 0 -6
21 -3 46 l5 46 -30 -6 c-30 -7 -30 -7 -31 40 -1 26 -4 49 -7 52 -5 5 -9 -56
-6 -89 2 -14 -23 -28 -49 -29 -7 0 -1 141 7 160 4 10 8 6 13 -15 l8 -30 1 33
c1 35 26 46 34 15 4 -14 5 -12 6 5 1 17 9 24 31 29 17 3 30 9 30 14 0 11 6 12
-69 -11 -35 -11 -66 -18 -69 -16 -2 3 7 8 22 12 18 4 26 13 26 28 -1 21 -1 21
-16 1 -15 -19 -16 -15 -11 49 7 85 16 97 19 25 l1 -54 6 54 c4 34 11 56 20 59
12 4 13 -9 8 -72 -5 -52 -3 -75 4 -71 5 4 9 14 8 23 -1 10 -1 43 0 74 1 54 2
57 30 63 16 3 32 13 35 22 14 36 16 -2 6 -138z m3781 51 c1 -27 2 -60 2 -71 1
-14 -7 -25 -21 -30 -20 -7 -22 -5 -22 21 0 16 -4 31 -9 34 -5 4 -7 -3 -4 -13
4 -16 -2 -21 -31 -26 -20 -4 -36 -12 -36 -17 0 -6 8 -7 18 -3 41 17 55 18 50
4 -2 -8 -15 -15 -29 -17 -13 -2 -31 -6 -39 -9 -27 -11 -40 -11 -46 -2 -3 5 5
14 18 19 21 9 21 10 -7 7 -25 -2 -29 -6 -27 -24 3 -20 -1 -23 -27 -23 -16 0
-33 -5 -36 -11 -4 -5 -17 -9 -28 -7 -12 1 -28 -2 -36 -6 -8 -5 -28 -11 -45
-13 -57 -7 -64 -9 -80 -22 -8 -7 -20 -10 -25 -6 -6 3 -20 1 -31 -5 -19 -10
-20 -8 -21 40 -1 27 -1 62 -2 77 -1 28 0 28 164 70 90 23 164 42 165 42 0 1 1
-15 2 -35 2 -43 12 -60 12 -21 0 15 6 27 13 27 9 0 8 3 -2 9 -7 5 -10 14 -7
20 9 14 46 15 46 1 0 -5 -6 -10 -12 -10 -10 0 -10 -2 -2 -8 7 -4 14 -18 17
-32 4 -24 4 -24 6 3 1 19 8 31 24 37 l22 9 -22 0 c-21 1 -34 21 -14 21 5 0 16
3 25 6 13 5 16 -1 16 -27 1 -28 2 -31 11 -16 5 9 7 22 3 28 -3 6 0 15 7 20 30
19 39 9 40 -41z m-3629 -119 c-4 -59 -16 -80 -25 -43 -3 9 -5 -1 -6 -23 0 -29
2 -36 9 -25 8 13 10 13 10 -1 0 -11 -21 -22 -70 -36 -41 -12 -67 -16 -61 -9 5
6 9 44 10 85 0 41 2 76 4 78 3 2 18 8 36 13 l31 9 2 -47 1 -47 6 49 c7 61 28
73 34 19 l4 -38 1 43 c1 24 5 41 10 39 4 -3 5 -32 4 -66z m-867 -198 c-10
-103 -21 -206 -25 -228 l-8 -40 -1 52 -1 51 -52 -14 c-66 -17 -72 -17 -56 0 7
8 15 12 18 9 3 -3 10 30 15 74 6 43 15 78 20 79 33 4 75 18 75 25 0 5 -11 7
-25 3 -28 -7 -30 0 -19 93 6 46 10 53 35 62 16 5 29 15 29 22 0 7 3 10 6 6 3
-3 -2 -90 -11 -194z m4506 145 c1 -29 2 -68 4 -85 2 -34 -8 -41 -35 -23 -13 9
-13 11 0 20 13 9 13 10 0 9 -8 -1 -26 -5 -40 -9 -24 -8 -24 -8 -2 -9 21 -1 32
-20 12 -22 -5 -1 -18 -2 -27 -4 -10 -1 -25 -4 -33 -8 -8 -3 -26 -8 -40 -10
-14 -3 -36 -9 -49 -13 -19 -5 -23 -4 -19 7 3 8 2 23 -3 34 -6 17 -8 17 -8 3
-1 -10 -7 -18 -13 -18 -9 0 -9 -3 1 -9 19 -12 6 -43 -16 -39 -10 2 -19 10 -19
18 -4 40 -7 42 -13 10 -5 -29 -10 -35 -31 -35 -14 0 -31 -5 -38 -12 -6 -6 -23
-10 -37 -7 -14 2 -25 0 -25 -5 0 -5 -9 -11 -20 -14 -11 -3 -20 0 -20 5 0 6 -6
6 -15 -2 -24 -20 -31 -4 -31 71 l1 73 70 17 c39 9 72 17 75 16 3 0 12 2 20 5
15 6 118 31 172 42 14 3 33 9 42 12 13 5 16 -1 17 -27 1 -19 3 -26 6 -16 2 9
12 18 21 18 15 1 14 2 -1 6 -24 6 -16 27 12 31 14 2 22 -1 20 -10 -1 -7 -1
-24 0 -37 2 -37 13 -17 13 23 0 33 6 40 41 45 4 0 8 -23 8 -51z m-3037 -166
c-7 -125 -8 -131 -31 -141 -48 -22 -63 -15 -63 29 0 41 4 45 64 64 10 4 17 9
14 11 -4 5 -85 -13 -141 -31 -16 -5 -17 -3 -5 15 7 11 15 16 19 10 12 -20 26
16 21 58 -3 30 -8 40 -18 36 -9 -3 -14 1 -14 12 0 11 5 15 15 11 8 -3 15 -1
15 4 0 23 29 8 33 -17 4 -27 4 -27 6 3 1 28 5 33 37 38 19 4 38 14 41 22 12
31 13 3 7 -124z m3048 -32 c0 -38 1 -75 2 -82 1 -7 -12 -13 -29 -14 -16 -1
-31 -3 -32 -4 -2 -1 -7 -3 -12 -4 -5 0 -12 -4 -16 -8 -4 -4 -13 -4 -21 -1 -8
3 -14 0 -14 -7 0 -9 -10 -11 -30 -6 -16 3 -30 1 -30 -4 0 -5 -7 -7 -15 -4 -8
4 -15 1 -15 -5 0 -6 -4 -11 -10 -11 -5 0 -10 12 -10 27 0 14 -3 23 -7 19 -4
-4 -8 -17 -8 -29 0 -18 -5 -22 -32 -21 -18 1 -33 -2 -33 -6 0 -13 -39 -19 -44
-6 -3 8 -7 8 -13 -1 -9 -13 -56 -24 -100 -25 -13 0 -23 -4 -23 -9 0 -5 -7 -9
-15 -9 -13 0 -15 14 -13 82 3 73 5 82 23 84 30 4 148 32 168 39 13 5 17 2 17
-14 0 -15 4 -19 17 -14 11 4 12 8 5 11 -34 11 -3 27 88 46 14 3 37 9 52 12
l27 6 -2 -66 c-1 -39 2 -66 8 -66 6 0 9 19 6 46 -2 32 1 49 10 55 10 6 11 9 2
9 -27 0 -13 30 15 31 15 0 36 4 47 9 34 14 35 12 37 -60z m-3447 23 c-2 -16
-6 -73 -9 -127 -3 -55 -9 -103 -13 -106 -5 -4 -23 -10 -40 -13 l-33 -6 0 43
c0 42 2 45 36 56 56 19 32 24 -29 6 -71 -21 -76 -20 -69 6 3 12 7 17 10 10 10
-30 21 -7 24 50 2 42 7 63 17 66 11 4 13 -7 8 -57 -3 -33 -1 -61 3 -61 5 0 10
28 12 62 3 60 4 62 36 70 17 5 32 13 32 18 0 6 4 10 10 10 5 0 8 -12 5 -27z
m-3425 -68 c0 -9 -10 -20 -22 -25 -19 -7 -19 -9 -5 -9 16 -1 17 -7 11 -48 -3
-27 -15 -56 -26 -66 -15 -15 -16 -22 -8 -33 14 -16 3 -117 -11 -108 -9 5 -11
0 -13 -28 -1 -14 -56 -42 -64 -33 -3 3 -1 5 4 5 5 0 10 28 11 61 2 68 9 80 47
82 14 1 26 6 26 11 0 4 -12 5 -26 2 -16 -4 -23 -3 -20 3 4 5 2 12 -3 15 -5 3
-5 26 1 53 5 27 10 61 11 77 2 24 9 32 37 42 47 17 50 17 50 -1z m6879 -131
c1 -37 4 -70 7 -75 3 -5 -3 -12 -13 -16 -10 -4 -21 -11 -25 -17 -5 -8 -8 -7
-8 1 0 8 -7 8 -30 0 -31 -12 -54 -2 -30 13 12 8 11 10 -7 10 -16 0 -20 -5 -16
-20 3 -11 1 -21 -3 -22 -5 0 -20 -2 -34 -4 -45 -5 -203 -37 -237 -48 -20 -6
-23 -4 -23 19 0 21 -2 24 -14 13 -10 -9 -11 -15 -2 -20 8 -6 7 -11 -4 -18 -19
-12 -36 -7 -32 10 2 8 -6 11 -22 8 -22 -5 -26 -1 -32 27 -3 17 -4 45 -2 61 3
27 8 30 63 41 96 20 119 24 143 26 12 1 22 5 22 10 0 16 49 6 53 -10 4 -14 5
-12 6 5 1 15 7 22 21 22 11 0 21 0 23 0 1 0 24 7 51 15 64 19 90 19 83 0 -4
-8 -2 -17 3 -20 6 -4 10 5 10 19 0 22 8 29 41 35 4 0 7 -29 8 -65z m-4053 -15
c-7 -71 -11 -79 -36 -79 -14 0 -20 9 -23 33 -4 29 -4 28 -3 -5 1 -32 -2 -38
-24 -43 -14 -3 -34 -9 -45 -12 -17 -5 -18 -4 -6 10 7 9 10 24 7 33 -3 8 -3 33
0 54 6 37 8 39 63 53 31 8 60 15 65 16 5 0 6 -26 2 -60z m985 -82 c-3 -148 -5
-155 -50 -166 -99 -26 -91 -28 -91 20 0 32 -3 40 -10 29 -8 -13 -10 -13 -10 1
0 14 26 28 52 29 4 0 9 -12 11 -27 4 -27 4 -27 6 3 1 32 15 44 52 44 10 0 19
5 19 11 0 6 -8 8 -17 5 -10 -3 -38 -10 -63 -16 -25 -6 -54 -14 -65 -17 -16 -4
-18 -3 -7 8 7 8 12 39 12 76 0 39 4 63 11 63 7 0 10 -21 9 -57 -3 -84 3 -89 9
-9 8 96 30 102 33 9 l2 -68 3 65 c3 46 9 69 20 78 26 19 51 15 56 -10 2 -14 5
-7 6 16 0 22 4 36 8 33 4 -4 5 -58 4 -120z m-3076 -149 c-14 -101 -32 -220
-39 -266 -13 -83 -5 -120 15 -64 10 30 44 49 55 31 3 -6 0 -17 -7 -25 -6 -8
-9 -17 -5 -21 3 -3 -36 -17 -87 -30 -50 -13 -95 -27 -98 -31 -4 -4 -9 -26 -13
-49 -7 -49 -5 -50 68 -28 70 21 85 20 81 -7 -2 -13 -9 -58 -16 -100 l-12 -77
-78 -18 c-44 -10 -79 -22 -79 -27 0 -8 15 -6 90 11 41 9 65 9 65 -2 0 -5 -6
-46 -14 -91 l-13 -81 -79 -18 c-43 -9 -79 -22 -79 -27 0 -10 54 -3 108 14 19
6 37 6 42 2 4 -5 4 -38 -1 -74 -17 -116 -10 -107 -99 -126 -44 -10 -80 -21
-80 -26 0 -11 15 -10 89 7 35 9 65 14 67 12 7 -6 -19 -172 -28 -183 -4 -6 -42
-17 -83 -25 -41 -7 -75 -17 -75 -22 0 -8 18 -7 119 9 l44 7 -6 -29 c-3 -16 -9
-58 -13 -92 -8 -71 -9 -73 -104 -90 -37 -6 -57 -6 -61 0 -4 6 -11 8 -17 4 -6
-3 -13 -2 -16 3 -3 5 17 168 45 362 27 195 52 372 55 394 3 22 12 85 20 140 9
55 17 141 20 190 6 132 12 147 64 162 51 15 68 29 25 20 -26 -6 -27 -5 -8 4
20 11 33 34 38 72 2 18 -10 23 -20 7 -3 -5 -11 -10 -17 -10 -7 0 -7 4 1 13 6
8 8 17 4 20 -3 4 2 10 12 13 10 4 21 1 26 -7 8 -12 11 -11 20 4 5 9 15 17 22
17 7 0 6 -4 -3 -10 -8 -5 -11 -12 -7 -16 18 -19 31 27 56 193 14 98 27 170 29
161 2 -10 -8 -100 -23 -200z m3418 102 l2 -71 -40 -10 -40 -10 -3 -65 c-2 -40
1 -64 7 -64 7 0 11 24 11 59 0 60 7 71 46 71 12 0 15 -14 12 -75 l-3 -75 -40
-11 c-22 -5 -46 -12 -54 -15 -10 -3 -11 -1 -4 8 6 7 11 42 12 78 2 35 5 68 7
72 3 5 -3 8 -13 8 -14 0 -15 2 -4 9 13 8 18 35 20 114 1 20 6 37 12 37 6 0 9
-9 6 -20 -3 -11 -1 -20 4 -20 5 0 9 11 9 24 0 18 6 26 23 28 12 2 23 3 25 2 2
-1 4 -34 5 -74z m-752 -72 c-4 -70 -10 -130 -13 -133 -4 -4 -23 -10 -42 -15
l-36 -8 -2 42 -1 41 -6 -45 c-3 -25 -10 -43 -16 -40 -5 3 -9 9 -7 14 2 6 0 21
-3 35 -5 20 -8 22 -16 10 -7 -12 -9 -11 -9 3 0 9 8 19 18 21 87 24 112 33 112
40 0 5 -10 5 -22 1 -57 -18 -122 -33 -127 -29 -2 3 1 5 7 5 7 0 12 9 12 20 0
25 19 27 22 3 1 -10 4 13 7 51 8 96 30 102 33 9 l2 -68 5 69 c6 68 7 70 38 78
18 5 35 13 39 19 3 6 7 9 9 7 2 -2 0 -60 -4 -130z m-598 -80 c-3 -24 -12 -47
-19 -51 -8 -4 -14 -15 -14 -24 0 -14 2 -14 15 3 16 19 16 19 13 -1 -2 -13 -16
-24 -38 -31 -38 -12 -123 -27 -102 -18 7 4 12 27 12 64 0 61 13 80 55 80 15 0
16 -9 13 -60 -2 -33 -1 -60 3 -60 5 0 9 28 11 62 3 62 22 91 31 46 4 -20 4
-20 6 5 0 15 5 27 10 27 5 0 7 -19 4 -42z m-1861 -143 c-16 -124 -18 -130 -44
-143 -29 -13 -33 -23 -43 -107 -4 -27 -8 -63 -10 -80 -14 -99 -37 -281 -45
-350 -10 -86 -32 -249 -55 -410 -8 -55 -20 -149 -26 -210 -13 -114 -21 -137
-41 -117 -9 9 -9 31 0 94 12 82 67 506 76 583 3 22 16 123 30 225 13 102 27
209 30 238 4 29 9 59 12 67 4 10 -3 18 -20 25 -25 9 -26 12 -21 62 11 95 11
95 61 107 41 11 48 10 60 -6 12 -17 13 -16 8 4 -7 26 -51 36 -78 17 -11 -8
-27 -14 -36 -14 -10 1 -7 5 8 13 12 7 19 16 16 20 -4 4 4 7 17 7 13 0 31 5 39
10 11 7 6 8 -16 4 -33 -6 -57 12 -30 22 9 3 16 12 16 20 0 9 8 13 23 10 14 -2
21 -9 19 -20 -3 -17 23 -22 33 -6 3 6 1 10 -5 10 -7 0 -10 7 -6 15 4 12 -4 15
-42 16 l-47 1 35 10 c19 5 43 9 53 9 9 0 15 4 12 9 -3 5 3 10 12 12 10 2 19
-1 20 -7 1 -5 -5 -68 -15 -140z m2855 48 c-4 -49 -7 -111 -7 -139 0 -48 -2
-52 -27 -58 -16 -4 -36 -9 -45 -12 -16 -5 -18 2 -18 46 0 52 4 57 47 63 26 4
44 17 22 17 -8 -1 -41 -7 -74 -15 -81 -20 -88 -19 -68 5 13 14 19 16 25 7 6
-9 8 -8 9 3 3 37 -4 85 -12 88 -24 9 -4 31 39 41 26 7 55 14 65 17 17 5 19 0
15 -55 -1 -34 0 -61 5 -61 4 0 7 29 7 63 0 58 5 77 18 77 3 0 2 -39 -1 -87z
m-415 -152 c-5 -73 -11 -134 -13 -136 -2 -2 -21 -6 -41 -10 -33 -6 -37 -5 -41
17 -4 21 -4 20 -6 -4 -2 -45 -31 -36 -33 10 l-1 37 -4 -35 c-3 -19 -9 -39 -15
-45 -7 -7 -8 7 -4 45 4 30 9 56 11 58 1 2 17 4 34 4 18 1 34 5 37 10 3 4 16 8
30 8 13 0 24 4 24 9 0 6 -12 6 -32 0 -65 -18 -68 -15 -68 54 0 44 -3 58 -10
47 -9 -13 -10 -13 -10 1 0 10 20 21 63 33 34 11 66 23 71 27 5 5 11 7 13 5 2
-2 0 -63 -5 -135z m-619 -69 c3 -23 1 -42 -4 -42 -5 0 -9 -10 -9 -22 0 -18 2
-20 10 -8 5 8 12 11 15 8 14 -13 -6 -26 -57 -38 -29 -6 -61 -14 -71 -17 -16
-4 -17 -2 -7 16 6 12 9 25 6 30 -3 4 -2 28 2 52 7 39 11 44 40 50 29 6 32 4
33 -20 l2 -26 4 25 c4 21 22 44 29 37 2 -1 5 -21 7 -45z m1019 -145 c-4 -158
-6 -165 -50 -172 -20 -4 -49 -9 -64 -11 -27 -5 -28 -4 -28 38 0 28 -3 38 -9
29 -6 -10 -10 -10 -16 -1 -9 15 3 27 38 35 22 6 27 4 28 -11 0 -16 2 -15 9 4
7 16 18 22 40 22 16 0 30 5 30 11 0 6 -8 8 -17 5 -63 -19 -174 -35 -135 -19 8
3 12 28 12 74 0 45 4 69 11 69 8 0 10 -20 7 -65 -3 -36 -2 -65 3 -65 5 0 9 31
9 69 l0 68 39 7 c22 3 46 9 55 12 12 4 16 -4 19 -43 3 -47 3 -47 5 11 1 33 5
56 9 52 4 -4 6 -58 5 -119z m-417 -104 c-4 -76 -10 -141 -14 -144 -3 -4 -23
-9 -43 -12 -34 -5 -38 -3 -39 16 -1 21 -1 21 -8 -2 -12 -43 -31 -37 -31 9 0
25 -4 39 -10 35 -5 -3 -10 0 -10 8 0 10 23 21 70 32 39 10 69 20 66 22 -2 3
-37 -2 -77 -11 -39 -9 -74 -14 -77 -11 -3 3 0 5 6 5 7 0 12 16 12 39 0 90 5
98 81 116 38 10 69 21 69 26 0 5 3 9 6 9 3 0 2 -62 -1 -137z m-2091 -10 c-4
-27 -11 -51 -17 -54 -5 -4 -10 -27 -11 -53 0 -25 -2 -46 -3 -46 -2 0 -80 -18
-174 -40 -95 -22 -177 -39 -183 -36 -6 2 -4 5 5 5 17 1 29 29 29 69 0 13 -4
20 -10 17 -7 -4 -8 8 -4 37 9 56 14 60 16 12 l1 -39 6 45 c5 38 10 45 31 48
14 2 29 8 35 13 22 22 27 6 21 -63 -4 -40 -9 -82 -12 -93 -4 -15 -3 -17 4 -6
6 8 13 47 17 88 5 56 11 75 25 83 32 17 42 12 36 -17 -13 -68 -18 -158 -8
-148 6 6 13 46 17 90 6 76 17 107 31 92 4 -3 2 -44 -3 -91 -5 -47 -6 -83 -3
-80 3 3 10 45 15 92 10 83 11 87 36 90 25 3 25 3 18 -55 -9 -71 -11 -118 -4
-111 2 2 7 33 10 69 9 100 12 108 48 118 17 5 33 10 35 10 2 1 0 -20 -4 -46z
m1480 -45 c-4 -24 -11 -44 -16 -46 -4 -2 -8 -13 -7 -25 0 -21 1 -21 10 -2 8
18 8 18 6 -5 -1 -17 -9 -26 -24 -28 -19 -3 -22 2 -26 35 l-4 38 -1 -41 c-2
-38 -5 -42 -33 -48 -43 -8 -67 -8 -53 2 6 4 14 36 17 71 4 35 8 65 10 67 1 1
24 5 51 8 26 2 51 7 54 10 15 16 22 2 16 -36z m1196 -114 l-5 -78 -80 -16 -80
-15 3 78 c2 49 8 80 15 82 56 17 67 15 68 -7 1 -23 1 -23 8 1 4 14 13 27 20
29 11 4 13 -11 9 -72 -3 -42 -1 -76 4 -76 4 0 8 33 8 74 0 50 4 76 13 79 21 7
22 1 17 -79z m-210 2 c0 -18 -3 -54 -6 -80 -6 -42 -9 -46 -35 -46 -21 0 -29 6
-32 23 -3 15 -4 13 -2 -5 1 -21 -3 -28 -16 -28 -15 0 -19 11 -22 68 l-3 67 -2
-72 c-1 -51 -6 -73 -14 -73 -10 0 -12 21 -10 80 3 66 6 80 20 82 9 0 29 2 45
3 15 1 30 5 34 9 3 3 15 6 25 6 14 0 18 -8 18 -34z m-2490 -50 c0 -18 -3 -48
-7 -67 -5 -28 -7 -30 -14 -14 -7 19 -8 18 -8 -2 -1 -17 -7 -23 -25 -23 -20 0
-25 6 -29 33 l-4 32 -1 -37 c-2 -38 -3 -39 -64 -52 -26 -6 -28 -4 -28 26 0 53
12 108 23 108 6 0 8 -22 4 -61 -4 -33 -3 -58 2 -55 5 3 11 30 13 61 5 61 4 60
36 69 20 7 22 4 23 -26 l2 -33 4 30 c5 34 18 45 51 45 18 0 22 -5 22 -34z
m2097 -78 c-4 -57 -7 -122 -7 -145 0 -41 -1 -42 -37 -48 -21 -4 -50 -9 -65
-11 -24 -5 -28 -2 -29 18 l-2 23 -4 -22 c-2 -13 -9 -23 -15 -23 -9 0 -3 88 8
99 2 2 17 4 34 5 16 1 30 4 30 9 0 4 10 7 23 7 12 0 29 5 37 11 11 8 6 9 -22
4 l-37 -6 -4 48 -3 48 -2 -52 c-2 -40 -6 -53 -17 -53 -12 0 -15 14 -16 63 -1
34 -4 49 -6 32 -7 -49 -19 -48 -18 2 1 31 6 47 16 50 8 1 40 8 72 15 31 6 57
15 57 20 0 4 3 8 6 8 4 0 4 -46 1 -102z m-3362 -65 c-7 -43 -11 -81 -8 -85 2
-5 -7 -8 -21 -8 -24 0 -25 2 -21 48 l4 47 -11 -52 c-8 -40 -15 -53 -29 -53 -9
0 -20 6 -22 13 -3 7 -6 5 -6 -5 -1 -10 -6 -18 -12 -18 -7 0 -9 12 -5 33 3 17
8 56 12 85 4 28 12 52 18 52 6 0 21 3 34 6 19 6 22 2 23 -27 2 -34 2 -34 6 -4
4 30 29 59 43 50 4 -2 2 -39 -5 -82z m2972 50 c-3 -21 -9 -83 -13 -138 -6 -93
-16 -121 -37 -108 -11 7 3 96 17 105 6 5 1 8 -12 8 -14 0 -21 -4 -17 -10 12
-19 -6 -110 -20 -110 -13 0 -13 28 0 93 2 12 -3 17 -18 16 -12 0 -16 -3 -9 -6
13 -5 16 -52 6 -90 -7 -24 -34 -32 -34 -10 0 8 -4 7 -10 -3 -7 -11 -10 0 -10
38 0 55 16 72 23 25 4 -27 4 -26 6 4 1 26 -3 32 -21 35 -13 2 9 9 48 16 72 13
72 13 78 50 3 20 6 56 6 80 0 24 5 42 11 42 8 0 10 -13 6 -37z m-3112 -70 c-4
-38 -8 -76 -8 -85 -1 -10 -7 -18 -14 -18 -10 0 -12 13 -9 53 l5 52 -11 -57
c-9 -45 -15 -58 -29 -58 -16 0 -17 7 -14 53 l4 52 -11 -57 c-8 -47 -14 -58
-29 -58 -20 0 -20 -2 0 125 8 49 40 63 42 18 l1 -28 7 30 c8 37 38 46 44 13 4
-20 4 -20 6 5 0 15 6 27 12 27 9 0 10 -19 4 -67z m2866 25 l2 -23 4 23 c9 48
22 18 17 -40 -7 -84 -9 -88 -40 -88 -21 0 -25 4 -21 20 3 11 1 20 -5 20 -6 0
-8 -11 -6 -25 4 -21 1 -25 -18 -25 -12 0 -30 -3 -39 -6 -14 -6 -15 2 -9 67 3
41 7 75 8 76 2 2 17 6 34 9 27 5 32 3 33 -12 0 -16 2 -16 9 4 5 12 14 22 20
22 5 0 11 -10 11 -22z m-1501 -60 c0 -9 4 -8 11 2 8 11 9 7 5 -19 -3 -18 -7
-43 -7 -55 -1 -13 -5 -8 -10 14 -7 33 -7 32 -6 -12 1 -27 -2 -48 -7 -48 -4 0
-6 -15 -4 -34 l4 -34 -58 -13 c-32 -6 -61 -10 -63 -7 -6 5 13 177 21 189 3 5
14 9 26 9 20 0 20 -4 14 -72 -4 -40 -9 -81 -12 -90 -3 -10 -1 -18 4 -18 5 0
13 41 17 91 6 80 9 91 28 99 31 12 37 12 37 -2z m-137 -80 c-4 -35 -8 -80 -8
-100 0 -21 -4 -38 -10 -39 -5 0 -30 -3 -54 -6 l-44 -5 5 31 c2 17 0 31 -5 31
-5 0 -7 -16 -5 -35 3 -28 1 -35 -14 -35 -15 0 -17 8 -13 68 l4 67 -11 -72
c-10 -67 -13 -73 -34 -73 -28 0 -29 15 -14 119 10 71 7 66 38 75 18 6 22 3 23
-16 1 -22 2 -20 15 21 3 9 8 11 14 5 6 -6 6 -30 1 -62 -4 -28 -5 -52 -1 -52 4
0 10 27 14 59 6 48 11 61 27 66 11 4 23 4 27 1 3 -4 1 -43 -5 -89 -5 -45 -7
-86 -3 -90 8 -9 15 25 26 131 4 45 10 62 20 62 12 0 14 -11 7 -62z m2867 -13
c0 -79 -10 -95 -59 -95 -19 0 -21 6 -21 52 0 28 -3 49 -6 46 -3 -3 -5 -29 -6
-57 0 -47 -2 -51 -23 -51 -13 0 -29 -2 -37 -5 -10 -4 -12 11 -10 74 3 79 4 80
32 86 16 4 34 4 39 1 5 -4 12 -2 16 4 3 5 13 10 21 10 12 0 13 -14 8 -75 -3
-50 -2 -75 5 -75 7 0 11 28 11 73 0 41 3 77 7 80 17 18 23 1 23 -68z m-192
-97 c-4 -77 -11 -144 -15 -148 -4 -4 -25 -10 -45 -13 -34 -5 -38 -3 -39 16 -2
22 -2 22 -6 0 -2 -13 -11 -23 -19 -23 -10 0 -14 14 -14 53 l0 53 65 13 c36 7
63 17 60 21 -3 5 -20 4 -38 -1 -17 -5 -33 -9 -34 -9 -2 0 -3 35 -3 79 l0 78
43 10 c23 6 44 11 47 12 3 0 2 -63 -2 -141z m-422 -70 c-5 -91 -12 -145 -19
-150 -7 -4 -25 -8 -42 -8 -16 0 -40 -3 -52 -6 -21 -6 -23 -3 -24 32 l-2 39 -7
-40 -7 -40 -2 52 c0 28 4 55 9 58 6 3 10 0 11 -7 0 -10 2 -10 6 0 2 6 11 12
18 12 7 0 16 -6 18 -12 3 -8 6 -6 6 5 1 11 9 17 24 17 12 0 29 5 37 11 11 8 5
9 -22 4 l-38 -6 -2 38 -1 38 -4 -37 c-2 -20 -11 -39 -19 -42 -11 -4 -14 7 -14
60 0 41 -4 63 -10 59 -5 -3 -10 1 -10 9 0 9 8 17 18 18 47 4 58 7 107 28 11 5
22 9 24 9 2 1 1 -63 -3 -141z m-400 -35 c-10 -147 -16 -183 -32 -183 -10 0
-15 14 -16 43 -1 39 -1 40 -5 7 -6 -52 -12 -65 -24 -53 -6 6 -8 28 -4 56 6 39
10 46 36 51 16 3 29 10 29 16 0 6 -4 8 -10 5 -6 -4 -11 13 -12 42 l-2 48 -3
-47 c-3 -33 -9 -48 -18 -48 -16 0 -17 19 -8 103 5 44 7 47 34 47 16 0 29 5 29
10 0 6 3 10 6 10 4 0 4 -48 0 -107z m-217 -5 c-3 -75 -13 -98 -39 -98 -16 0
-20 7 -22 38 l-1 37 -4 -36 c-3 -28 -10 -38 -26 -43 -49 -13 -50 -11 -44 65 3
39 7 73 9 74 2 2 28 6 58 10 30 3 56 8 59 11 11 11 13 0 10 -58z m1024 -186
l-6 -82 -43 0 -43 0 -4 53 -3 52 -2 -57 c-2 -44 -6 -58 -17 -58 -12 0 -15 15
-15 75 0 71 3 79 30 77 3 0 28 6 55 13 28 7 51 12 52 11 2 -1 0 -39 -4 -84z
m-426 -58 c-3 -42 -7 -77 -9 -79 -2 -1 -20 -5 -40 -9 l-38 -7 -2 38 -1 38 -4
-37 c-3 -24 -9 -38 -18 -38 -10 0 -15 17 -18 63 l-3 62 -2 -67 c-1 -43 -6 -68
-13 -68 -8 0 -10 22 -7 70 3 39 7 73 10 75 4 4 118 31 142 34 5 1 6 -32 3 -75z"/>
<path d="M7693 4142 l-113 -57 0 -1029 c0 -566 3 -1027 6 -1024 3 4 5 89 5
190 l-1 184 51 18 c27 10 48 21 45 23 -3 3 -23 -2 -46 -11 -22 -9 -43 -16 -46
-16 -3 0 -4 33 -2 73 l3 72 75 30 c41 17 95 38 119 47 25 10 42 20 40 23 -3 2
-49 -13 -102 -35 -153 -61 -138 -63 -135 21 l3 72 37 13 c72 25 202 84 196 89
-4 4 -190 -68 -220 -85 -16 -9 -18 -4 -18 62 l1 73 82 34 c146 60 157 66 157
73 0 12 -3 11 -84 -26 -42 -19 -76 -32 -76 -29 0 3 -8 -1 -17 -9 -10 -9 -28
-19 -41 -23 -23 -7 -23 -6 -20 67 2 40 8 73 13 74 19 1 206 83 219 95 18 16
-21 10 -61 -10 -51 -26 -123 -57 -149 -65 -21 -6 -22 -4 -20 59 l1 66 90 39
c132 59 148 67 139 73 -5 3 -29 -5 -54 -17 -37 -18 -89 -40 -167 -73 -10 -4
-13 12 -13 61 0 60 2 67 23 75 70 28 220 104 211 108 -7 2 -60 -19 -118 -47
-59 -27 -109 -50 -112 -50 -3 0 -4 30 -2 68 2 37 8 67 13 67 6 0 38 15 72 33
35 18 64 32 65 31 7 -5 88 43 88 51 0 12 -6 9 -130 -51 -55 -27 -103 -49 -106
-49 -2 0 -4 28 -3 63 l2 62 51 24 c28 13 69 33 90 43 45 20 60 23 51 8 -3 -5
-1 -10 5 -10 7 0 10 7 6 15 -3 9 3 19 14 25 13 7 20 20 19 38 -1 19 -3 21 -6
7 -2 -11 -16 -26 -30 -32 -32 -16 -46 -17 -38 -3 3 6 1 10 -5 10 -7 0 -10 -7
-6 -15 4 -11 -15 -24 -71 -50 -42 -19 -77 -35 -79 -35 -2 0 -4 20 -4 45 0 35
4 47 21 55 11 7 18 14 15 17 -3 3 -12 0 -21 -7 -10 -8 -15 -9 -15 -1 0 8 132
81 147 81 1 0 3 -7 5 -17 3 -14 5 -14 18 2 9 11 10 16 3 11 -7 -4 -13 -3 -13
3 0 6 16 18 35 27 37 17 46 34 19 34 -8 0 -12 5 -9 10 3 6 1 10 -5 10 -7 0
-10 -7 -6 -15 3 -9 -3 -19 -16 -26 -18 -10 -20 -9 -15 5 4 9 2 16 -3 16 -6 0
-10 -8 -10 -18 0 -13 -20 -28 -69 -50 -39 -18 -72 -32 -74 -32 -2 0 -4 26 -5
58 0 52 2 59 26 70 31 15 45 15 37 2 -3 -5 -1 -10 5 -10 7 0 10 7 6 15 -4 11
15 25 72 53 42 20 78 37 79 37 0 0 3 9 5 20 2 14 -3 21 -19 23 -13 2 -23 -1
-23 -6 0 -6 10 -8 23 -6 15 4 11 -1 -13 -15 -34 -19 -60 -19 -30 -1 13 8 12
10 -2 10 -11 0 -18 -8 -18 -19 0 -12 -13 -26 -32 -35 -40 -20 -49 -20 -41 1 4
11 3 14 -6 9 -7 -5 -10 -14 -7 -22 4 -11 -38 -44 -57 -44 -3 0 -5 32 -4 70 0
39 5 70 10 70 5 0 7 -9 4 -20 -3 -11 -1 -23 4 -26 5 -3 9 -1 9 4 0 6 20 18 45
29 30 12 45 24 45 36 0 11 -6 17 -12 15 -7 -3 -13 -11 -13 -18 0 -7 -5 -15
-11 -17 -6 -2 -11 4 -11 12 0 9 17 25 38 35 l37 19 -3 -24 c-3 -29 7 -32 26
-8 10 11 10 14 2 9 -7 -4 -13 -2 -13 3 0 6 6 11 13 11 9 0 9 2 -1 9 -11 7 -11
9 0 13 9 4 15 -3 16 -20 3 -35 12 -42 12 -9 0 15 5 27 11 27 5 0 7 -4 4 -10
-3 -5 -2 -10 4 -10 5 0 13 5 16 10 3 6 1 10 -6 10 -8 0 -9 3 0 13 10 13 5 28
-8 26 -3 0 -57 -26 -118 -57z"/>
<path d="M4326 3648 c-9 -95 -19 -183 -22 -195 -3 -14 0 -23 8 -23 9 0 10 -2
2 -8 -9 -5 -44 -255 -44 -312 0 -13 27 -13 35 0 16 26 39 230 27 242 -11 11
23 51 52 61 18 7 19 3 13 -65 -4 -40 -10 -108 -13 -150 l-7 -76 -46 -17 c-25
-9 -51 -18 -56 -20 -6 -1 -12 -20 -14 -41 -1 -22 -8 -93 -14 -159 -11 -102
-11 -121 1 -123 24 -6 31 10 42 108 6 52 13 111 15 130 2 19 4 42 5 50 0 9 14
21 30 27 l31 12 -6 -62 c-3 -34 -8 -87 -11 -117 -3 -30 -8 -71 -11 -90 -4 -24
-2 -32 5 -25 5 6 15 71 22 145 6 74 14 145 17 156 3 17 23 29 81 49 183 64
323 118 319 121 -2 2 -91 -27 -197 -66 -107 -38 -195 -68 -197 -66 -6 6 28
310 35 318 4 3 86 36 182 73 179 68 280 111 280 119 0 3 -26 -6 -57 -18 -32
-13 -112 -45 -178 -70 -66 -26 -141 -56 -167 -67 -26 -10 -51 -19 -56 -19 -4
0 -5 27 -1 63 4 34 4 66 0 70 -5 5 -12 -26 -16 -68 -7 -76 -7 -77 -42 -91 -19
-9 -38 -13 -41 -10 -3 3 -1 6 5 6 13 0 25 68 38 213 8 100 14 125 31 131 8 3
14 13 14 23 0 14 -2 15 -9 4 -6 -10 -13 -11 -29 -2 -11 6 -25 11 -30 11 -5 0
-17 -78 -26 -172z"/>
<path d="M4361 2784 c-69 -25 -126 -46 -127 -47 -1 -1 -9 -69 -19 -152 -9 -82
-17 -155 -18 -162 -1 -6 1 -12 6 -12 32 -3 36 2 43 57 3 31 8 64 9 73 7 39 8
126 1 137 -10 16 23 49 57 57 20 6 26 4 23 -6 -3 -8 -7 -48 -10 -89 -3 -41 -8
-104 -12 -140 -4 -36 -4 -63 -1 -60 3 3 13 77 22 165 9 88 19 163 22 168 2 4
10 7 16 7 7 0 41 11 77 25 36 13 58 24 50 24 -8 0 -71 -20 -139 -45z"/>
<path d="M4299 2422 l-105 -35 -13 -126 c-7 -69 -15 -145 -18 -168 -5 -39 -4
-43 15 -43 24 0 26 8 42 170 15 149 17 157 47 165 14 3 27 4 30 1 3 -2 -2 -71
-11 -152 -9 -81 -14 -149 -11 -152 3 -3 5 -1 6 4 0 5 8 81 17 169 l17 160 60
22 c97 35 40 24 -76 -15z"/>
<path d="M4227 2051 c-33 -9 -62 -23 -67 -31 -4 -8 -13 -69 -19 -135 -7 -66
-14 -139 -18 -162 -4 -35 -2 -43 10 -43 26 0 31 18 48 179 11 105 21 156 30
162 21 13 59 11 54 -3 -2 -7 -9 -67 -15 -133 -6 -66 -13 -133 -15 -150 -4 -24
-3 -26 4 -10 5 11 17 89 25 174 10 98 20 158 28 163 19 11 0 8 -65 -11z"/>
</g>
</svg>
